<svg width="338" height="49" viewBox="0 0 338 49" fill="none" xmlns="http://www.w3.org/2000/svg">
<path d="M16.072 48.448C13.128 48.448 10.4827 47.936 8.136 46.912C5.832 45.8453 4.01867 44.3947 2.696 42.56C1.37333 40.6827 0.690667 38.528 0.648 36.096H6.856C7.06933 38.1867 7.92267 39.9573 9.416 41.408C10.952 42.816 13.1707 43.52 16.072 43.52C18.8453 43.52 21.0213 42.8373 22.6 41.472C24.2213 40.064 25.032 38.272 25.032 36.096C25.032 34.3893 24.5627 33.0027 23.624 31.936C22.6853 30.8693 21.512 30.0587 20.104 29.504C18.696 28.9493 16.7973 28.352 14.408 27.712C11.464 26.944 9.096 26.176 7.304 25.408C5.55467 24.64 4.04 23.4453 2.76 21.824C1.52267 20.16 0.904 17.9413 0.904 15.168C0.904 12.736 1.52267 10.5813 2.76 8.704C3.99733 6.82666 5.72533 5.376 7.944 4.352C10.2053 3.328 12.7867 2.816 15.688 2.816C19.8693 2.816 23.2827 3.86133 25.928 5.952C28.616 8.04266 30.1307 10.816 30.472 14.272H24.072C23.8587 12.5653 22.9627 11.072 21.384 9.792C19.8053 8.46933 17.7147 7.808 15.112 7.808C12.68 7.808 10.696 8.448 9.16 9.728C7.624 10.9653 6.856 12.7147 6.856 14.976C6.856 16.5973 7.304 17.92 8.2 18.944C9.13867 19.968 10.2693 20.7573 11.592 21.312C12.9573 21.824 14.856 22.4213 17.288 23.104C20.232 23.9147 22.6 24.7253 24.392 25.536C26.184 26.304 27.72 27.52 29 29.184C30.28 30.8053 30.92 33.024 30.92 35.84C30.92 38.016 30.344 40.064 29.192 41.984C28.04 43.904 26.3333 45.4613 24.072 46.656C21.8107 47.8507 19.144 48.448 16.072 48.448ZM54.7865 48.576C51.5012 48.576 48.5145 47.8293 45.8265 46.336C43.1812 44.8427 41.0905 42.7307 39.5545 40C38.0612 37.2267 37.3145 34.0267 37.3145 30.4C37.3145 26.816 38.0825 23.6587 39.6185 20.928C41.1972 18.1547 43.3305 16.0427 46.0185 14.592C48.7065 13.0987 51.7145 12.352 55.0425 12.352C58.3705 12.352 61.3785 13.0987 64.0665 14.592C66.7545 16.0427 68.8665 18.1333 70.4025 20.864C71.9812 23.5947 72.7705 26.7733 72.7705 30.4C72.7705 34.0267 71.9598 37.2267 70.3385 40C68.7598 42.7307 66.6052 44.8427 63.8745 46.336C61.1438 47.8293 58.1145 48.576 54.7865 48.576ZM54.7865 43.456C56.8772 43.456 58.8398 42.9653 60.6745 41.984C62.5092 41.0027 63.9812 39.5307 65.0905 37.568C66.2425 35.6053 66.8185 33.216 66.8185 30.4C66.8185 27.584 66.2638 25.1947 65.1545 23.232C64.0452 21.2693 62.5945 19.8187 60.8025 18.88C59.0105 17.8987 57.0692 17.408 54.9785 17.408C52.8452 17.408 50.8825 17.8987 49.0905 18.88C47.3412 19.8187 45.9332 21.2693 44.8665 23.232C43.7998 25.1947 43.2665 27.584 43.2665 30.4C43.2665 33.2587 43.7785 35.6693 44.8025 37.632C45.8692 39.5947 47.2772 41.0667 49.0265 42.048C50.7758 42.9867 52.6958 43.456 54.7865 43.456ZM111.532 12.928V48H105.708V42.816C104.599 44.608 103.041 46.016 101.036 47.04C99.0733 48.0213 96.8973 48.512 94.508 48.512C91.7773 48.512 89.324 47.9573 87.148 46.848C84.972 45.696 83.244 43.9893 81.964 41.728C80.7267 39.4667 80.108 36.7147 80.108 33.472V12.928H85.868V32.704C85.868 36.16 86.7427 38.8267 88.492 40.704C90.2413 42.5387 92.6307 43.456 95.66 43.456C98.7747 43.456 101.228 42.496 103.02 40.576C104.812 38.656 105.708 35.8613 105.708 32.192V12.928H111.532ZM128.47 17.728V38.4C128.47 40.1067 128.832 41.3227 129.558 42.048C130.283 42.7307 131.542 43.072 133.333 43.072H137.622V48H132.374C129.131 48 126.699 47.2533 125.078 45.76C123.456 44.2667 122.646 41.8133 122.646 38.4V17.728H118.102V12.928H122.646V4.096H128.47V12.928H137.622V17.728H128.47ZM162.086 12.288C164.731 12.288 167.121 12.864 169.254 14.016C171.387 15.1253 173.051 16.8107 174.246 19.072C175.483 21.3333 176.102 24.0853 176.102 27.328V48H170.342V28.16C170.342 24.6613 169.467 21.9947 167.718 20.16C165.969 18.2827 163.579 17.344 160.55 17.344C157.478 17.344 155.025 18.304 153.19 20.224C151.398 22.144 150.502 24.9387 150.502 28.608V48H144.678V0.639999H150.502V17.92C151.654 16.128 153.233 14.7413 155.238 13.76C157.286 12.7787 159.569 12.288 162.086 12.288ZM232.336 12.928L221.392 48H215.376L206.928 20.16L198.48 48H192.464L181.456 12.928H187.408L195.472 42.368L204.176 12.928H210.128L218.64 42.432L226.576 12.928H232.336ZM235.94 30.336C235.94 26.752 236.665 23.616 238.116 20.928C239.566 18.1973 241.55 16.0853 244.068 14.592C246.628 13.0987 249.465 12.352 252.58 12.352C255.652 12.352 258.318 13.0133 260.58 14.336C262.841 15.6587 264.526 17.3227 265.636 19.328V12.928H271.524V48H265.636V41.472C264.484 43.52 262.756 45.2267 260.452 46.592C258.19 47.9147 255.545 48.576 252.516 48.576C249.401 48.576 246.585 47.808 244.068 46.272C241.55 44.736 239.566 42.5813 238.116 39.808C236.665 37.0347 235.94 33.8773 235.94 30.336ZM265.636 30.4C265.636 27.7547 265.102 25.4507 264.036 23.488C262.969 21.5253 261.518 20.032 259.684 19.008C257.892 17.9413 255.908 17.408 253.732 17.408C251.556 17.408 249.572 17.92 247.78 18.944C245.988 19.968 244.558 21.4613 243.492 23.424C242.425 25.3867 241.892 27.6907 241.892 30.336C241.892 33.024 242.425 35.3707 243.492 37.376C244.558 39.3387 245.988 40.8533 247.78 41.92C249.572 42.944 251.556 43.456 253.732 43.456C255.908 43.456 257.892 42.944 259.684 41.92C261.518 40.8533 262.969 39.3387 264.036 37.376C265.102 35.3707 265.636 33.0453 265.636 30.4ZM287.19 18.624C288.214 16.6187 289.664 15.0613 291.542 13.952C293.462 12.8427 295.787 12.288 298.518 12.288V18.304H296.982C290.454 18.304 287.19 21.8453 287.19 28.928V48H281.366V12.928H287.19V18.624ZM337.241 29.12C337.241 30.2293 337.177 31.4027 337.049 32.64H309.017C309.23 36.096 310.403 38.8053 312.537 40.768C314.713 42.688 317.337 43.648 320.409 43.648C322.926 43.648 325.017 43.072 326.681 41.92C328.387 40.7253 329.582 39.1467 330.265 37.184H336.537C335.598 40.5547 333.721 43.3067 330.905 45.44C328.089 47.5307 324.59 48.576 320.409 48.576C317.081 48.576 314.094 47.8293 311.449 46.336C308.846 44.8427 306.798 42.7307 305.305 40C303.811 37.2267 303.065 34.0267 303.065 30.4C303.065 26.7733 303.79 23.5947 305.241 20.864C306.691 18.1333 308.718 16.0427 311.321 14.592C313.966 13.0987 316.995 12.352 320.409 12.352C323.737 12.352 326.681 13.0773 329.241 14.528C331.801 15.9787 333.763 17.984 335.129 20.544C336.537 23.0613 337.241 25.92 337.241 29.12ZM331.225 27.904C331.225 25.6853 330.734 23.7867 329.753 22.208C328.771 20.5867 327.427 19.3707 325.721 18.56C324.057 17.7067 322.201 17.28 320.153 17.28C317.209 17.28 314.691 18.2187 312.601 20.096C310.553 21.9733 309.379 24.576 309.081 27.904H331.225Z" fill="black"/>
</svg>
