<svg width="31" height="47" viewBox="0 0 31 47" fill="none" xmlns="http://www.w3.org/2000/svg">
<path d="M16.072 46.448C13.128 46.448 10.4827 45.936 8.136 44.912C5.832 43.8453 4.01867 42.3947 2.696 40.56C1.37333 38.6827 0.690667 36.528 0.648 34.096H6.856C7.06933 36.1867 7.92267 37.9573 9.416 39.408C10.952 40.816 13.1707 41.52 16.072 41.52C18.8453 41.52 21.0213 40.8373 22.6 39.472C24.2213 38.064 25.032 36.272 25.032 34.096C25.032 32.3893 24.5627 31.0027 23.624 29.936C22.6853 28.8693 21.512 28.0587 20.104 27.504C18.696 26.9493 16.7973 26.352 14.408 25.712C11.464 24.944 9.096 24.176 7.304 23.408C5.55467 22.64 4.04 21.4453 2.76 19.824C1.52267 18.16 0.904 15.9413 0.904 13.168C0.904 10.736 1.52267 8.58133 2.76 6.704C3.99733 4.82666 5.72533 3.376 7.944 2.352C10.2053 1.328 12.7867 0.815998 15.688 0.815998C19.8693 0.815998 23.2827 1.86133 25.928 3.952C28.616 6.04266 30.1307 8.816 30.472 12.272H24.072C23.8587 10.5653 22.9627 9.072 21.384 7.792C19.8053 6.46933 17.7147 5.808 15.112 5.808C12.68 5.808 10.696 6.448 9.16 7.728C7.624 8.96533 6.856 10.7147 6.856 12.976C6.856 14.5973 7.304 15.92 8.2 16.944C9.13867 17.968 10.2693 18.7573 11.592 19.312C12.9573 19.824 14.856 20.4213 17.288 21.104C20.232 21.9147 22.6 22.7253 24.392 23.536C26.184 24.304 27.72 25.52 29 27.184C30.28 28.8053 30.92 31.024 30.92 33.84C30.92 36.016 30.344 38.064 29.192 39.984C28.04 41.904 26.3333 43.4613 24.072 44.656C21.8107 45.8507 19.144 46.448 16.072 46.448Z" fill="white"/>
</svg>
